<mxfile host="Electron" modified="2024-03-04T17:40:27.758Z" agent="Mozilla/5.0 (Windows NT 10.0; Win64; x64) AppleWebKit/537.36 (KHTML, like Gecko) draw.io/23.1.5 Chrome/120.0.6099.109 Electron/28.1.0 Safari/537.36" etag="-VuattOsfTKS6Cgps3i4" version="23.1.5" type="device">
  <diagram name="Page-1" id="0783ab3e-0a74-02c8-0abd-f7b4e66b4bec">
    <mxGraphModel dx="4609" dy="2676" grid="1" gridSize="10" guides="1" tooltips="1" connect="1" arrows="1" fold="1" page="1" pageScale="1" pageWidth="850" pageHeight="1100" background="none" math="0" shadow="0">
      <root>
        <mxCell id="0" />
        <mxCell id="1" parent="0" />
        <mxCell id="haw2drm8eqrPv3W6W2Qp-1" value="HbcScraper" style="shape=umlLifeline;perimeter=lifelinePerimeter;whiteSpace=wrap;container=1;dropTarget=0;collapsible=0;recursiveResize=0;outlineConnect=0;portConstraint=eastwest;newEdgeStyle={&quot;edgeStyle&quot;:&quot;elbowEdgeStyle&quot;,&quot;elbow&quot;:&quot;vertical&quot;,&quot;curved&quot;:0,&quot;rounded&quot;:0};size=65;strokeWidth=2;fontSize=18;" vertex="1" parent="1">
          <mxGeometry x="40" y="1030" width="150" height="1364" as="geometry" />
        </mxCell>
        <mxCell id="haw2drm8eqrPv3W6W2Qp-2" value="PlcDataSource" style="shape=umlLifeline;perimeter=lifelinePerimeter;whiteSpace=wrap;container=1;dropTarget=0;collapsible=0;recursiveResize=0;outlineConnect=0;portConstraint=eastwest;newEdgeStyle={&quot;edgeStyle&quot;:&quot;elbowEdgeStyle&quot;,&quot;elbow&quot;:&quot;vertical&quot;,&quot;curved&quot;:0,&quot;rounded&quot;:0};size=65;strokeWidth=2;fontSize=18;" vertex="1" parent="1">
          <mxGeometry x="240" y="1030" width="150" height="1364" as="geometry" />
        </mxCell>
        <mxCell id="haw2drm8eqrPv3W6W2Qp-3" value="" style="points=[];perimeter=orthogonalPerimeter;outlineConnect=0;targetShapes=umlLifeline;portConstraint=eastwest;newEdgeStyle={&quot;edgeStyle&quot;:&quot;elbowEdgeStyle&quot;,&quot;elbow&quot;:&quot;vertical&quot;,&quot;curved&quot;:0,&quot;rounded&quot;:0};strokeWidth=2;fontSize=18;" vertex="1" parent="haw2drm8eqrPv3W6W2Qp-2">
          <mxGeometry x="70" y="107" width="10" height="166" as="geometry" />
        </mxCell>
        <mxCell id="haw2drm8eqrPv3W6W2Qp-4" value="ThreadPoolTaskScheduler" style="shape=umlLifeline;perimeter=lifelinePerimeter;whiteSpace=wrap;container=1;dropTarget=0;collapsible=0;recursiveResize=0;outlineConnect=0;portConstraint=eastwest;newEdgeStyle={&quot;edgeStyle&quot;:&quot;elbowEdgeStyle&quot;,&quot;elbow&quot;:&quot;vertical&quot;,&quot;curved&quot;:0,&quot;rounded&quot;:0};size=65;strokeWidth=2;fontSize=18;" vertex="1" parent="1">
          <mxGeometry x="429" y="1030" width="221" height="1364" as="geometry" />
        </mxCell>
        <mxCell id="haw2drm8eqrPv3W6W2Qp-5" value="" style="points=[];perimeter=orthogonalPerimeter;outlineConnect=0;targetShapes=umlLifeline;portConstraint=eastwest;newEdgeStyle={&quot;edgeStyle&quot;:&quot;elbowEdgeStyle&quot;,&quot;elbow&quot;:&quot;vertical&quot;,&quot;curved&quot;:0,&quot;rounded&quot;:0};strokeWidth=2;fontSize=18;" vertex="1" parent="haw2drm8eqrPv3W6W2Qp-4">
          <mxGeometry x="95" y="523" width="10" height="62" as="geometry" />
        </mxCell>
        <mxCell id="haw2drm8eqrPv3W6W2Qp-6" value="CronScrapeJob" style="shape=umlLifeline;perimeter=lifelinePerimeter;whiteSpace=wrap;container=1;dropTarget=0;collapsible=0;recursiveResize=0;outlineConnect=0;portConstraint=eastwest;newEdgeStyle={&quot;edgeStyle&quot;:&quot;elbowEdgeStyle&quot;,&quot;elbow&quot;:&quot;vertical&quot;,&quot;curved&quot;:0,&quot;rounded&quot;:0};size=65;strokeWidth=2;fontSize=18;" vertex="1" parent="1">
          <mxGeometry x="689" y="1030" width="150" height="1364" as="geometry" />
        </mxCell>
        <mxCell id="haw2drm8eqrPv3W6W2Qp-7" value="" style="points=[];perimeter=orthogonalPerimeter;outlineConnect=0;targetShapes=umlLifeline;portConstraint=eastwest;newEdgeStyle={&quot;edgeStyle&quot;:&quot;elbowEdgeStyle&quot;,&quot;elbow&quot;:&quot;vertical&quot;,&quot;curved&quot;:0,&quot;rounded&quot;:0};strokeWidth=2;fontSize=18;" vertex="1" parent="haw2drm8eqrPv3W6W2Qp-6">
          <mxGeometry x="70" y="419" width="10" height="62" as="geometry" />
        </mxCell>
        <mxCell id="haw2drm8eqrPv3W6W2Qp-8" value="PlcReadRequet" style="shape=umlLifeline;perimeter=lifelinePerimeter;whiteSpace=wrap;container=1;dropTarget=0;collapsible=0;recursiveResize=0;outlineConnect=0;portConstraint=eastwest;newEdgeStyle={&quot;edgeStyle&quot;:&quot;elbowEdgeStyle&quot;,&quot;elbow&quot;:&quot;vertical&quot;,&quot;curved&quot;:0,&quot;rounded&quot;:0};size=65;strokeWidth=2;fontSize=18;" vertex="1" parent="1">
          <mxGeometry x="889" y="1030" width="150" height="1364" as="geometry" />
        </mxCell>
        <mxCell id="haw2drm8eqrPv3W6W2Qp-9" value="HbcScraperTask" style="shape=umlLifeline;perimeter=lifelinePerimeter;whiteSpace=wrap;container=1;dropTarget=0;collapsible=0;recursiveResize=0;outlineConnect=0;portConstraint=eastwest;newEdgeStyle={&quot;edgeStyle&quot;:&quot;elbowEdgeStyle&quot;,&quot;elbow&quot;:&quot;vertical&quot;,&quot;curved&quot;:0,&quot;rounded&quot;:0};size=65;strokeWidth=2;fontSize=18;" vertex="1" parent="1">
          <mxGeometry x="1089" y="1030" width="150" height="1364" as="geometry" />
        </mxCell>
        <mxCell id="haw2drm8eqrPv3W6W2Qp-10" value="" style="points=[];perimeter=orthogonalPerimeter;outlineConnect=0;targetShapes=umlLifeline;portConstraint=eastwest;newEdgeStyle={&quot;edgeStyle&quot;:&quot;elbowEdgeStyle&quot;,&quot;elbow&quot;:&quot;vertical&quot;,&quot;curved&quot;:0,&quot;rounded&quot;:0};strokeWidth=2;fontSize=18;" vertex="1" parent="haw2drm8eqrPv3W6W2Qp-9">
          <mxGeometry x="70" y="315" width="10" height="62" as="geometry" />
        </mxCell>
        <mxCell id="haw2drm8eqrPv3W6W2Qp-11" value="TriggeredScraperImpl" style="shape=umlLifeline;perimeter=lifelinePerimeter;whiteSpace=wrap;container=1;dropTarget=0;collapsible=0;recursiveResize=0;outlineConnect=0;portConstraint=eastwest;newEdgeStyle={&quot;edgeStyle&quot;:&quot;elbowEdgeStyle&quot;,&quot;elbow&quot;:&quot;vertical&quot;,&quot;curved&quot;:0,&quot;rounded&quot;:0};size=65;strokeWidth=2;fontSize=18;" vertex="1" parent="1">
          <mxGeometry x="1279" y="1030" width="191" height="1364" as="geometry" />
        </mxCell>
        <mxCell id="haw2drm8eqrPv3W6W2Qp-12" value="" style="points=[];perimeter=orthogonalPerimeter;outlineConnect=0;targetShapes=umlLifeline;portConstraint=eastwest;newEdgeStyle={&quot;edgeStyle&quot;:&quot;elbowEdgeStyle&quot;,&quot;elbow&quot;:&quot;vertical&quot;,&quot;curved&quot;:0,&quot;rounded&quot;:0};strokeWidth=2;fontSize=18;" vertex="1" parent="haw2drm8eqrPv3W6W2Qp-11">
          <mxGeometry x="81" y="673" width="10" height="62" as="geometry" />
        </mxCell>
        <mxCell id="haw2drm8eqrPv3W6W2Qp-13" value="PlcReadRequest" style="shape=umlLifeline;perimeter=lifelinePerimeter;whiteSpace=wrap;container=1;dropTarget=0;collapsible=0;recursiveResize=0;outlineConnect=0;portConstraint=eastwest;newEdgeStyle={&quot;edgeStyle&quot;:&quot;elbowEdgeStyle&quot;,&quot;elbow&quot;:&quot;vertical&quot;,&quot;curved&quot;:0,&quot;rounded&quot;:0};size=65;strokeWidth=2;fontSize=18;" vertex="1" parent="1">
          <mxGeometry x="1510" y="1030" width="150" height="1364" as="geometry" />
        </mxCell>
        <mxCell id="haw2drm8eqrPv3W6W2Qp-14" value="" style="points=[];perimeter=orthogonalPerimeter;outlineConnect=0;targetShapes=umlLifeline;portConstraint=eastwest;newEdgeStyle={&quot;edgeStyle&quot;:&quot;elbowEdgeStyle&quot;,&quot;elbow&quot;:&quot;vertical&quot;,&quot;curved&quot;:0,&quot;rounded&quot;:0};strokeWidth=2;fontSize=18;" vertex="1" parent="haw2drm8eqrPv3W6W2Qp-13">
          <mxGeometry x="70" y="777" width="10" height="62" as="geometry" />
        </mxCell>
        <mxCell id="haw2drm8eqrPv3W6W2Qp-15" value="PlcResultHandler" style="shape=umlLifeline;perimeter=lifelinePerimeter;whiteSpace=wrap;container=1;dropTarget=0;collapsible=0;recursiveResize=0;outlineConnect=0;portConstraint=eastwest;newEdgeStyle={&quot;edgeStyle&quot;:&quot;elbowEdgeStyle&quot;,&quot;elbow&quot;:&quot;vertical&quot;,&quot;curved&quot;:0,&quot;rounded&quot;:0};size=65;strokeWidth=2;fontSize=18;" vertex="1" parent="1">
          <mxGeometry x="1710" y="1030" width="150" height="1364" as="geometry" />
        </mxCell>
        <mxCell id="haw2drm8eqrPv3W6W2Qp-16" value="MonitoringHandler" style="shape=umlLifeline;perimeter=lifelinePerimeter;whiteSpace=wrap;container=1;dropTarget=0;collapsible=0;recursiveResize=0;outlineConnect=0;portConstraint=eastwest;newEdgeStyle={&quot;edgeStyle&quot;:&quot;elbowEdgeStyle&quot;,&quot;elbow&quot;:&quot;vertical&quot;,&quot;curved&quot;:0,&quot;rounded&quot;:0};size=65;strokeWidth=2;fontSize=18;" vertex="1" parent="1">
          <mxGeometry x="1910" y="1030" width="156" height="1364" as="geometry" />
        </mxCell>
        <mxCell id="haw2drm8eqrPv3W6W2Qp-17" value="BlueprintPersistenceService" style="shape=umlLifeline;perimeter=lifelinePerimeter;whiteSpace=wrap;container=1;dropTarget=0;collapsible=0;recursiveResize=0;outlineConnect=0;portConstraint=eastwest;newEdgeStyle={&quot;edgeStyle&quot;:&quot;elbowEdgeStyle&quot;,&quot;elbow&quot;:&quot;vertical&quot;,&quot;curved&quot;:0,&quot;rounded&quot;:0};size=65;strokeWidth=2;fontSize=18;" vertex="1" parent="1">
          <mxGeometry x="2104" y="1030" width="236" height="1364" as="geometry" />
        </mxCell>
        <mxCell id="haw2drm8eqrPv3W6W2Qp-18" value="" style="points=[];perimeter=orthogonalPerimeter;outlineConnect=0;targetShapes=umlLifeline;portConstraint=eastwest;newEdgeStyle={&quot;edgeStyle&quot;:&quot;elbowEdgeStyle&quot;,&quot;elbow&quot;:&quot;vertical&quot;,&quot;curved&quot;:0,&quot;rounded&quot;:0};strokeWidth=2;fontSize=18;" vertex="1" parent="haw2drm8eqrPv3W6W2Qp-17">
          <mxGeometry x="101" y="159" width="10" height="52" as="geometry" />
        </mxCell>
        <mxCell id="haw2drm8eqrPv3W6W2Qp-19" value="" style="points=[];perimeter=orthogonalPerimeter;outlineConnect=0;targetShapes=umlLifeline;portConstraint=eastwest;newEdgeStyle={&quot;edgeStyle&quot;:&quot;elbowEdgeStyle&quot;,&quot;elbow&quot;:&quot;vertical&quot;,&quot;curved&quot;:0,&quot;rounded&quot;:0};strokeWidth=2;fontSize=18;" vertex="1" parent="haw2drm8eqrPv3W6W2Qp-17">
          <mxGeometry x="114" y="985" width="10" height="42" as="geometry" />
        </mxCell>
        <mxCell id="haw2drm8eqrPv3W6W2Qp-20" value="DataProcessor" style="shape=umlLifeline;perimeter=lifelinePerimeter;whiteSpace=wrap;container=1;dropTarget=0;collapsible=0;recursiveResize=0;outlineConnect=0;portConstraint=eastwest;newEdgeStyle={&quot;edgeStyle&quot;:&quot;elbowEdgeStyle&quot;,&quot;elbow&quot;:&quot;vertical&quot;,&quot;curved&quot;:0,&quot;rounded&quot;:0};size=65;strokeWidth=2;fontSize=18;" vertex="1" parent="1">
          <mxGeometry x="2378" y="1030" width="150" height="1364" as="geometry" />
        </mxCell>
        <mxCell id="haw2drm8eqrPv3W6W2Qp-21" value="" style="points=[];perimeter=orthogonalPerimeter;outlineConnect=0;targetShapes=umlLifeline;portConstraint=eastwest;newEdgeStyle={&quot;edgeStyle&quot;:&quot;elbowEdgeStyle&quot;,&quot;elbow&quot;:&quot;vertical&quot;,&quot;curved&quot;:0,&quot;rounded&quot;:0};strokeWidth=2;fontSize=18;" vertex="1" parent="haw2drm8eqrPv3W6W2Qp-20">
          <mxGeometry x="70" y="1089" width="10" height="42" as="geometry" />
        </mxCell>
        <mxCell id="haw2drm8eqrPv3W6W2Qp-22" value="WebSocketService" style="shape=umlLifeline;perimeter=lifelinePerimeter;whiteSpace=wrap;container=1;dropTarget=0;collapsible=0;recursiveResize=0;outlineConnect=0;portConstraint=eastwest;newEdgeStyle={&quot;edgeStyle&quot;:&quot;elbowEdgeStyle&quot;,&quot;elbow&quot;:&quot;vertical&quot;,&quot;curved&quot;:0,&quot;rounded&quot;:0};size=65;strokeWidth=2;fontSize=18;" vertex="1" parent="1">
          <mxGeometry x="2566" y="1030" width="174" height="1364" as="geometry" />
        </mxCell>
        <mxCell id="haw2drm8eqrPv3W6W2Qp-23" value="loop" style="shape=umlFrame;pointerEvents=0;dropTarget=0;strokeColor=#000000;height=19;width=57;strokeWidth=2;fontSize=18;" vertex="1" parent="1">
          <mxGeometry x="1973" y="2191" width="690" height="98" as="geometry" />
        </mxCell>
        <mxCell id="haw2drm8eqrPv3W6W2Qp-24" value="[for each blueprint]" style="text;strokeColor=none;fillColor=none;align=center;verticalAlign=middle;whiteSpace=wrap;strokeWidth=2;fontSize=18;" vertex="1" parent="haw2drm8eqrPv3W6W2Qp-23">
          <mxGeometry x="40" width="650" height="20" as="geometry" />
        </mxCell>
        <mxCell id="haw2drm8eqrPv3W6W2Qp-25" value="loop" style="shape=umlFrame;pointerEvents=0;dropTarget=0;strokeColor=#000000;height=25;width=66;strokeWidth=2;fontSize=18;" vertex="1" parent="1">
          <mxGeometry x="1154" y="1625" width="1519" height="674" as="geometry" />
        </mxCell>
        <mxCell id="haw2drm8eqrPv3W6W2Qp-26" value="[loop by cron]" style="text;strokeColor=none;fillColor=none;align=center;verticalAlign=middle;whiteSpace=wrap;strokeWidth=2;fontSize=18;" vertex="1" parent="haw2drm8eqrPv3W6W2Qp-25">
          <mxGeometry x="40" width="1479" height="20" as="geometry" />
        </mxCell>
        <mxCell id="haw2drm8eqrPv3W6W2Qp-27" value="get all tags" style="verticalAlign=bottom;endArrow=block;edgeStyle=elbowEdgeStyle;elbow=vertical;curved=0;rounded=0;strokeWidth=2;fontSize=18;" edge="1" parent="1" source="haw2drm8eqrPv3W6W2Qp-1" target="haw2drm8eqrPv3W6W2Qp-3">
          <mxGeometry relative="1" as="geometry">
            <Array as="points">
              <mxPoint x="225" y="1137" />
            </Array>
          </mxGeometry>
        </mxCell>
        <mxCell id="haw2drm8eqrPv3W6W2Qp-28" value="get all tags" style="verticalAlign=bottom;endArrow=block;edgeStyle=elbowEdgeStyle;elbow=vertical;curved=0;rounded=0;strokeWidth=2;fontSize=18;" edge="1" parent="1" source="haw2drm8eqrPv3W6W2Qp-3" target="haw2drm8eqrPv3W6W2Qp-18">
          <mxGeometry relative="1" as="geometry">
            <Array as="points">
              <mxPoint x="1281" y="1189" />
            </Array>
          </mxGeometry>
        </mxCell>
        <mxCell id="haw2drm8eqrPv3W6W2Qp-29" value="return all tags" style="verticalAlign=bottom;endArrow=block;edgeStyle=elbowEdgeStyle;elbow=vertical;curved=0;rounded=0;strokeWidth=2;fontSize=18;" edge="1" parent="1" source="haw2drm8eqrPv3W6W2Qp-18" target="haw2drm8eqrPv3W6W2Qp-3">
          <mxGeometry relative="1" as="geometry">
            <Array as="points">
              <mxPoint x="1279" y="1241" />
            </Array>
          </mxGeometry>
        </mxCell>
        <mxCell id="haw2drm8eqrPv3W6W2Qp-30" value="return all tags" style="verticalAlign=bottom;endArrow=block;edgeStyle=elbowEdgeStyle;elbow=vertical;curved=0;rounded=0;strokeWidth=2;fontSize=18;" edge="1" parent="1" source="haw2drm8eqrPv3W6W2Qp-3" target="haw2drm8eqrPv3W6W2Qp-1">
          <mxGeometry relative="1" as="geometry">
            <Array as="points">
              <mxPoint x="223" y="1293" />
            </Array>
          </mxGeometry>
        </mxCell>
        <mxCell id="haw2drm8eqrPv3W6W2Qp-31" value="initScrapperTask(tags)" style="verticalAlign=bottom;endArrow=block;edgeStyle=elbowEdgeStyle;elbow=vertical;curved=0;rounded=0;strokeWidth=2;fontSize=18;" edge="1" parent="1" source="haw2drm8eqrPv3W6W2Qp-1" target="haw2drm8eqrPv3W6W2Qp-10">
          <mxGeometry relative="1" as="geometry">
            <Array as="points">
              <mxPoint x="650" y="1345" />
            </Array>
          </mxGeometry>
        </mxCell>
        <mxCell id="haw2drm8eqrPv3W6W2Qp-32" value="return scrapperTask" style="verticalAlign=bottom;endArrow=block;edgeStyle=elbowEdgeStyle;elbow=vertical;curved=0;rounded=0;strokeWidth=2;fontSize=18;" edge="1" parent="1" source="haw2drm8eqrPv3W6W2Qp-10" target="haw2drm8eqrPv3W6W2Qp-1">
          <mxGeometry relative="1" as="geometry">
            <Array as="points">
              <mxPoint x="647" y="1397" />
            </Array>
          </mxGeometry>
        </mxCell>
        <mxCell id="haw2drm8eqrPv3W6W2Qp-33" value="getCron()" style="verticalAlign=bottom;endArrow=block;edgeStyle=elbowEdgeStyle;elbow=vertical;curved=0;rounded=0;strokeWidth=2;fontSize=18;" edge="1" parent="1" source="haw2drm8eqrPv3W6W2Qp-1" target="haw2drm8eqrPv3W6W2Qp-7">
          <mxGeometry relative="1" as="geometry">
            <Array as="points">
              <mxPoint x="450" y="1449" />
            </Array>
          </mxGeometry>
        </mxCell>
        <mxCell id="haw2drm8eqrPv3W6W2Qp-34" value="return cron" style="verticalAlign=bottom;endArrow=block;edgeStyle=elbowEdgeStyle;elbow=vertical;curved=0;rounded=0;strokeWidth=2;fontSize=18;" edge="1" parent="1" source="haw2drm8eqrPv3W6W2Qp-7" target="haw2drm8eqrPv3W6W2Qp-1">
          <mxGeometry relative="1" as="geometry">
            <Array as="points">
              <mxPoint x="447" y="1501" />
            </Array>
          </mxGeometry>
        </mxCell>
        <mxCell id="haw2drm8eqrPv3W6W2Qp-35" value="schedule(scrapperTask, cron)" style="verticalAlign=bottom;endArrow=block;edgeStyle=elbowEdgeStyle;elbow=vertical;curved=0;rounded=0;strokeWidth=2;fontSize=18;" edge="1" parent="1" source="haw2drm8eqrPv3W6W2Qp-1" target="haw2drm8eqrPv3W6W2Qp-5">
          <mxGeometry relative="1" as="geometry">
            <Array as="points">
              <mxPoint x="337" y="1553" />
            </Array>
          </mxGeometry>
        </mxCell>
        <mxCell id="haw2drm8eqrPv3W6W2Qp-36" value="return ScheduledFuture" style="verticalAlign=bottom;endArrow=block;edgeStyle=elbowEdgeStyle;elbow=vertical;curved=0;rounded=0;strokeWidth=2;fontSize=18;" edge="1" parent="1" source="haw2drm8eqrPv3W6W2Qp-5" target="haw2drm8eqrPv3W6W2Qp-1">
          <mxGeometry relative="1" as="geometry">
            <Array as="points">
              <mxPoint x="335" y="1605" />
            </Array>
          </mxGeometry>
        </mxCell>
        <mxCell id="haw2drm8eqrPv3W6W2Qp-37" value="getPlcConnection()" style="verticalAlign=bottom;endArrow=block;edgeStyle=elbowEdgeStyle;elbow=vertical;curved=0;rounded=0;strokeWidth=2;fontSize=18;" edge="1" parent="1" source="haw2drm8eqrPv3W6W2Qp-9" target="haw2drm8eqrPv3W6W2Qp-12">
          <mxGeometry relative="1" as="geometry">
            <Array as="points">
              <mxPoint x="1279" y="1703" />
            </Array>
          </mxGeometry>
        </mxCell>
        <mxCell id="haw2drm8eqrPv3W6W2Qp-38" value="return connection" style="verticalAlign=bottom;endArrow=block;edgeStyle=elbowEdgeStyle;elbow=vertical;curved=0;rounded=0;strokeWidth=2;fontSize=18;" edge="1" parent="1" source="haw2drm8eqrPv3W6W2Qp-12" target="haw2drm8eqrPv3W6W2Qp-9">
          <mxGeometry relative="1" as="geometry">
            <Array as="points">
              <mxPoint x="1277" y="1755" />
            </Array>
          </mxGeometry>
        </mxCell>
        <mxCell id="haw2drm8eqrPv3W6W2Qp-39" value="read values of tags from PLC" style="verticalAlign=bottom;endArrow=block;edgeStyle=elbowEdgeStyle;elbow=vertical;curved=0;rounded=0;strokeWidth=2;fontSize=18;" edge="1" parent="1" source="haw2drm8eqrPv3W6W2Qp-9" target="haw2drm8eqrPv3W6W2Qp-14">
          <mxGeometry relative="1" as="geometry">
            <Array as="points">
              <mxPoint x="1385" y="1807" />
            </Array>
          </mxGeometry>
        </mxCell>
        <mxCell id="haw2drm8eqrPv3W6W2Qp-40" value="return PlcReadResponse" style="verticalAlign=bottom;endArrow=block;edgeStyle=elbowEdgeStyle;elbow=vertical;curved=0;rounded=0;strokeWidth=2;fontSize=18;" edge="1" parent="1" source="haw2drm8eqrPv3W6W2Qp-14" target="haw2drm8eqrPv3W6W2Qp-9">
          <mxGeometry relative="1" as="geometry">
            <Array as="points">
              <mxPoint x="1382" y="1859" />
            </Array>
          </mxGeometry>
        </mxCell>
        <mxCell id="haw2drm8eqrPv3W6W2Qp-41" value="handle(PlcReadResponse)" style="verticalAlign=bottom;endArrow=block;edgeStyle=elbowEdgeStyle;elbow=vertical;curved=0;rounded=0;strokeWidth=2;fontSize=18;" edge="1" parent="1" source="haw2drm8eqrPv3W6W2Qp-9" target="haw2drm8eqrPv3W6W2Qp-48">
          <mxGeometry relative="1" as="geometry">
            <Array as="points">
              <mxPoint x="1485" y="1911" />
            </Array>
          </mxGeometry>
        </mxCell>
        <mxCell id="haw2drm8eqrPv3W6W2Qp-42" value="handle()" style="verticalAlign=bottom;endArrow=block;edgeStyle=elbowEdgeStyle;elbow=vertical;curved=0;rounded=0;strokeWidth=2;fontSize=18;" edge="1" parent="1" source="haw2drm8eqrPv3W6W2Qp-15" target="haw2drm8eqrPv3W6W2Qp-16">
          <mxGeometry relative="1" as="geometry">
            <Array as="points">
              <mxPoint x="1899" y="1963" />
            </Array>
          </mxGeometry>
        </mxCell>
        <mxCell id="haw2drm8eqrPv3W6W2Qp-43" value="get all blueprints" style="verticalAlign=bottom;endArrow=block;edgeStyle=elbowEdgeStyle;elbow=vertical;curved=0;rounded=0;strokeWidth=2;fontSize=18;" edge="1" parent="1" source="haw2drm8eqrPv3W6W2Qp-16" target="haw2drm8eqrPv3W6W2Qp-19">
          <mxGeometry relative="1" as="geometry">
            <Array as="points">
              <mxPoint x="2118" y="2015" />
            </Array>
          </mxGeometry>
        </mxCell>
        <mxCell id="haw2drm8eqrPv3W6W2Qp-44" value="return blueprints" style="verticalAlign=bottom;endArrow=block;edgeStyle=elbowEdgeStyle;elbow=vertical;curved=0;rounded=0;strokeWidth=2;fontSize=18;" edge="1" parent="1" source="haw2drm8eqrPv3W6W2Qp-17" target="haw2drm8eqrPv3W6W2Qp-16">
          <mxGeometry relative="1" as="geometry">
            <Array as="points">
              <mxPoint x="2115" y="2067" />
            </Array>
          </mxGeometry>
        </mxCell>
        <mxCell id="haw2drm8eqrPv3W6W2Qp-45" value="process(PlcReadResponse, blueprints)" style="verticalAlign=bottom;endArrow=block;edgeStyle=elbowEdgeStyle;elbow=vertical;curved=0;rounded=0;strokeWidth=2;fontSize=18;" edge="1" parent="1" source="haw2drm8eqrPv3W6W2Qp-16" target="haw2drm8eqrPv3W6W2Qp-21">
          <mxGeometry relative="1" as="geometry">
            <Array as="points">
              <mxPoint x="2233" y="2119" />
            </Array>
          </mxGeometry>
        </mxCell>
        <mxCell id="haw2drm8eqrPv3W6W2Qp-46" value="return processedData" style="verticalAlign=bottom;endArrow=block;edgeStyle=elbowEdgeStyle;elbow=vertical;curved=0;rounded=0;strokeWidth=2;fontSize=18;" edge="1" parent="1" source="haw2drm8eqrPv3W6W2Qp-20" target="haw2drm8eqrPv3W6W2Qp-16">
          <mxGeometry relative="1" as="geometry">
            <Array as="points">
              <mxPoint x="2231" y="2171" />
            </Array>
          </mxGeometry>
        </mxCell>
        <mxCell id="haw2drm8eqrPv3W6W2Qp-47" value="send processed data of the blueprint" style="verticalAlign=bottom;endArrow=block;edgeStyle=elbowEdgeStyle;elbow=vertical;curved=0;rounded=0;strokeWidth=2;fontSize=18;" edge="1" parent="1" source="haw2drm8eqrPv3W6W2Qp-16" target="haw2drm8eqrPv3W6W2Qp-22">
          <mxGeometry relative="1" as="geometry">
            <Array as="points">
              <mxPoint x="2333" y="2269" />
            </Array>
          </mxGeometry>
        </mxCell>
        <mxCell id="haw2drm8eqrPv3W6W2Qp-48" value="" style="points=[];perimeter=orthogonalPerimeter;outlineConnect=0;targetShapes=umlLifeline;portConstraint=eastwest;newEdgeStyle={&quot;edgeStyle&quot;:&quot;elbowEdgeStyle&quot;,&quot;elbow&quot;:&quot;vertical&quot;,&quot;curved&quot;:0,&quot;rounded&quot;:0};strokeWidth=2;fontSize=18;" vertex="1" parent="1">
          <mxGeometry x="1780" y="1910" width="10" height="390" as="geometry" />
        </mxCell>
        <mxCell id="haw2drm8eqrPv3W6W2Qp-50" value="sd Monitoring " style="shape=umlFrame;pointerEvents=0;dropTarget=0;strokeColor=#000000;height=40;width=160;strokeWidth=2;fontSize=18;" vertex="1" parent="1">
          <mxGeometry x="10" y="940" width="2780" height="1510" as="geometry" />
        </mxCell>
      </root>
    </mxGraphModel>
  </diagram>
</mxfile>
